{"title":"Zusje (1995) - DVDRip","uid":14981030,"size":1576749483,"categoryP":"video","categoryS":"movies","magnet":"?xt=urn:btih:9a83eda6c9334ac94c4119b31194170c5105ba35&amp;dn=Zusje+%281995%29+-+DVDRip&amp;tr=udp%3A%2F%2Ftracker.leechers-paradise.org%3A6969&amp;tr=udp%3A%2F%2Fzer0day.ch%3A1337&amp;tr=udp%3A%2F%2Fopen.demonii.com%3A1337&amp;tr=udp%3A%2F%2Ftracker.coppersurfer.tk%3A6969&amp;tr=udp%3A%2F%2Fexodus.desync.com%3A6969","seeders":5,"leechers":0,"uploader":"wesleybl","files":1,"time":1466272079,"description":"Zusje (1995)\r\n\r\nDirector: Robert Jan Westdijk\r\n \nhttp://www.imdb.com/title/tt0115067\r\n\r\nVideo\r\nID                                       : 1\r\nFormat                                   : AVC\r\nFormat/Info                              : Advanced Video Codec\r\nFormat profile                           :   \r\nFormat settings, CABAC                   : Yes\r\nFormat settings, ReFrames                : 5 frames\r\nCodec ID                                 : V_MPEG4/ISO/AVC\r\nDuration                                 : 1h 28mn\r\nBit rate                                 : 1 893 Kbps\r\nNominal bit rate                         : 2 000 Kbps\r\nWidth                                    : 720 pixels\r\nHeight                                   : 576 pixels\r\nDisplay aspect ratio                     : 4:3\r\nFrame rate mode                          : Constant\r\nFrame rate                               : 25.000 fps\r\nStandard                                 : PAL\r\nColor space                              : YUV\r\nChroma subsampling                       : 4:2:0\r\nBit depth                                : 8 bits\r\nScan type                                : Progressive\r\nBits/(Pixel*Frame)                       : 0.183\r\nStream size                              : 1.16 GiB (79%)\r\nWriting library                          : x264 core 142 r2479 dd79a61\r\nEncoding settings                        : cabac=1 / ref=5 / deblock=1:-2:-2 / analyse=0x3:0x113 / me=umh / subme=8 / psy=1 / psy_rd=1.00:0.00 / mixed_ref=1 / me_range=16 / chroma_me=1 / trellis=1 / 8x8dct=1 / cqm=0 / deadzone=21,11 / fast_pskip=1 / chroma_qp_offset=-2 / threads=6 / lookahead_threads=1 / sliced_threads=0 / nr=0 / decimate=1 / interlaced=0 / bluray_compat=0 / constrained_intra=0 / bframes=5 / b_pyramid=2 / b_adapt=2 / b_bias=0 / direct=3 / weightb=1 / open_gop=0 / weightp=2 / keyint=250 / keyint_min=25 / scenecut=40 / intra_refresh=0 / rc_lookahead=40 / rc=abr / mbtree=1 / bitrate=2000 / ratetol=1.0 / qcomp=0.60 / qpmin=0 / qpmax=69 / qpstep=4 / ip_ratio=1.40 / aq=1:1.20\r\nDefault                                  : Yes\r\nForced                                   : No\r\nColor range                              : Limited\r\nColor primaries                          : BT.601 PAL\r\nTransfer characteristics                 : BT.709\r\nMatrix coefficients                      : BT.601\r\n\r\nAudio\r\nID                                       : 2\r\nFormat                                   : AC-3\r\nFormat/Info                              : Audio Coding 3\r\nMode extension                           : CM (complete main)\r\nFormat settings, Endianness              : Big\r\nCodec ID                                 : A_AC3\r\nDuration                                 : 1h 28mn\r\nBit rate mode                            : Constant\r\nBit rate                                 : 448 Kbps\r\nChannel(s)                               : 6 channels\r\nChannel positions                        : Front: L C R, Side: L R, LFE\r\nSampling rate                            : 48.0 KHz\r\nFrame rate                               : 31.250 fps (1536 spf)\r\nCompression mode                         : Lossy\r\nStream size                              : 282 MiB (19%)\r\nTitle                                    : Surround\r\nLanguage                                 : Dutch\r\nDefault                                  : Yes\r\nForced                                   : No\r\n\r\nText #1\r\nID                                       : 3\r\nFormat                                   : VobSub\r\nCodec ID                                 : S_VOBSUB\r\nCodec ID/Info                            : Picture based subtitle format used on DVDs\r\nLanguage                                 : English\r\nDefault                                  : Yes\r\nForced                                   : No\r\n\r\nText #2\r\nID                                       : 4\r\nFormat                                   : ASS\r\nCodec ID                                 : S_TEXT/ASS\r\nCodec ID/Info                            : Advanced Sub Station Alpha\r\nCompression mode                         : Lossless\r\nLanguage                                 : Portuguese\r\nDefault                                  : No\r\nForced                                   : No\r\n\r\nMenu\r\n00:00:00.000                             : :Chapter 1\r\n00:04:21.000                             : :Chapter 2\r\n00:11:15.600                             : :Chapter 3\r\n00:17:15.840                             : :Chapter 4\r\n00:21:48.120                             : :Chapter 5\r\n00:34:32.040                             : :Chapter 6\r\n00:40:50.280                             : :Chapter 7\r\n00:51:01.800                             : :Chapter 8\r\n00:58:13.680                             : :Chapter 9\r\n01:04:40.440                             : :Chapter 10\r\n01:12:59.640                             : :Chapter 11\r\n01:22:47.640                             : :Chapter 12","torrent":{"xt":"urn:btih:9a83eda6c9334ac94c4119b31194170c5105ba35","amp;dn":"Zusje+%281995%29+-+DVDRip","amp;tr":["udp%3A%2F%2Ftracker.leechers-paradise.org%3A6969","udp%3A%2F%2Fzer0day.ch%3A1337","udp%3A%2F%2Fopen.demonii.com%3A1337","udp%3A%2F%2Ftracker.coppersurfer.tk%3A6969","udp%3A%2F%2Fexodus.desync.com%3A6969"],"infoHash":"9a83eda6c9334ac94c4119b31194170c5105ba35","infoHashBuffer":{"type":"Buffer","data":[154,131,237,166,201,51,74,201,76,65,25,179,17,148,23,12,81,5,186,53]},"announce":[],"urlList":[]}}